<?xml version="1.0" encoding="UTF-8" standalone="no"?>
<!DOCTYPE svg PUBLIC "-//W3C//DTD SVG 1.1//EN"
 "http://www.w3.org/Graphics/SVG/1.1/DTD/svg11.dtd">
<!-- Generated by graphviz version 2.40.1 (20161225.0304)
 -->
<!-- Title: panel_data Pages: 1 -->
<svg width="393pt" height="354pt"
 viewBox="14.40 14.40 378.86 340.00" xmlns="http://www.w3.org/2000/svg" xmlns:xlink="http://www.w3.org/1999/xlink">
<g id="graph0" class="graph" transform="scale(1 1) rotate(0) translate(28.8 325.6)">
<title>panel_data</title>
<polygon fill="#ffffff" stroke="transparent" points="-14.4,14.4 -14.4,-311.2 350.0578,-311.2 350.0578,14.4 -14.4,14.4"/>
<!-- panel -->
<g id="node1" class="node">
<title>panel</title>
<path fill="#225ea8" stroke="#0c2c84" stroke-width="1.5" d="M210.8542,-296.7005C210.8542,-296.7005 137.7966,-296.7005 137.7966,-296.7005 131.7966,-296.7005 125.7966,-290.7005 125.7966,-284.7005 125.7966,-284.7005 125.7966,-270.0995 125.7966,-270.0995 125.7966,-264.0995 131.7966,-258.0995 137.7966,-258.0995 137.7966,-258.0995 210.8542,-258.0995 210.8542,-258.0995 216.8542,-258.0995 222.8542,-264.0995 222.8542,-270.0995 222.8542,-270.0995 222.8542,-284.7005 222.8542,-284.7005 222.8542,-290.7005 216.8542,-296.7005 210.8542,-296.7005"/>
<text text-anchor="middle" x="174.3254" y="-273.2" font-family="Inter" font-size="14.00" fill="#ffffff">Panel Data</text>
</g>
<!-- what -->
<g id="node2" class="node">
<title>what</title>
<path fill="#e0f2fe" stroke="#0284c7" stroke-width="1.5" d="M84.4768,-221.9005C84.4768,-221.9005 12.174,-221.9005 12.174,-221.9005 6.174,-221.9005 .174,-215.9005 .174,-209.9005 .174,-209.9005 .174,-195.2995 .174,-195.2995 .174,-189.2995 6.174,-183.2995 12.174,-183.2995 12.174,-183.2995 84.4768,-183.2995 84.4768,-183.2995 90.4768,-183.2995 96.4768,-189.2995 96.4768,-195.2995 96.4768,-195.2995 96.4768,-209.9005 96.4768,-209.9005 96.4768,-215.9005 90.4768,-221.9005 84.4768,-221.9005"/>
<text text-anchor="middle" x="48.3254" y="-198.4" font-family="Inter" font-size="14.00" fill="#1f2937">What is it?</text>
</g>
<!-- panel&#45;&gt;what -->
<g id="edge1" class="edge">
<title>panel&#45;&gt;what</title>
<path fill="none" stroke="#94a3b8" stroke-width="1.4" d="M141.5493,-257.9424C125.7994,-248.5925 106.7466,-237.2818 89.9809,-227.3288"/>
<polygon fill="#94a3b8" stroke="#94a3b8" stroke-width="1.4" points="91.323,-224.0553 80.9374,-221.9601 87.7496,-230.0746 91.323,-224.0553"/>
</g>
<!-- why -->
<g id="node3" class="node">
<title>why</title>
<path fill="#c7e9b4" stroke="#238b45" stroke-width="1.5" d="M222.0276,-221.9005C222.0276,-221.9005 126.6232,-221.9005 126.6232,-221.9005 120.6232,-221.9005 114.6232,-215.9005 114.6232,-209.9005 114.6232,-209.9005 114.6232,-195.2995 114.6232,-195.2995 114.6232,-189.2995 120.6232,-183.2995 126.6232,-183.2995 126.6232,-183.2995 222.0276,-183.2995 222.0276,-183.2995 228.0276,-183.2995 234.0276,-189.2995 234.0276,-195.2995 234.0276,-195.2995 234.0276,-209.9005 234.0276,-209.9005 234.0276,-215.9005 228.0276,-221.9005 222.0276,-221.9005"/>
<text text-anchor="middle" x="174.3254" y="-198.4" font-family="Inter" font-size="14.00" fill="#1f2937">Why it matters</text>
</g>
<!-- panel&#45;&gt;why -->
<g id="edge2" class="edge">
<title>panel&#45;&gt;why</title>
<path fill="none" stroke="#94a3b8" stroke-width="1.4" d="M174.3254,-257.7472C174.3254,-249.9308 174.3254,-240.7682 174.3254,-232.1812"/>
<polygon fill="#94a3b8" stroke="#94a3b8" stroke-width="1.4" points="177.8255,-232.1215 174.3254,-222.1216 170.8255,-232.1216 177.8255,-232.1215"/>
</g>
<!-- type -->
<g id="node4" class="node">
<title>type</title>
<path fill="#bcbddc" stroke="#6a51a3" stroke-width="1.5" d="M310.5375,-221.9005C310.5375,-221.9005 264.1133,-221.9005 264.1133,-221.9005 258.1133,-221.9005 252.1133,-215.9005 252.1133,-209.9005 252.1133,-209.9005 252.1133,-195.2995 252.1133,-195.2995 252.1133,-189.2995 258.1133,-183.2995 264.1133,-183.2995 264.1133,-183.2995 310.5375,-183.2995 310.5375,-183.2995 316.5375,-183.2995 322.5375,-189.2995 322.5375,-195.2995 322.5375,-195.2995 322.5375,-209.9005 322.5375,-209.9005 322.5375,-215.9005 316.5375,-221.9005 310.5375,-221.9005"/>
<text text-anchor="middle" x="287.3254" y="-198.4" font-family="Inter" font-size="14.00" fill="#000000">Types</text>
</g>
<!-- panel&#45;&gt;type -->
<g id="edge3" class="edge">
<title>panel&#45;&gt;type</title>
<path fill="none" stroke="#94a3b8" stroke-width="1.4" d="M203.7198,-257.9424C217.714,-248.679 234.6156,-237.4911 249.5495,-227.6056"/>
<polygon fill="#94a3b8" stroke="#94a3b8" stroke-width="1.4" points="251.6714,-230.3984 258.0781,-221.9601 247.8076,-224.5614 251.6714,-230.3984"/>
</g>
<!-- notation -->
<g id="node5" class="node">
<title>notation</title>
<path fill="#fcbba1" stroke="#fb6a4a" stroke-width="1.5" d="M315.6276,-147.0014C315.6276,-147.0014 259.0232,-147.0014 259.0232,-147.0014 253.0232,-147.0014 247.0232,-141.0014 247.0232,-135.0014 247.0232,-135.0014 247.0232,-103.7986 247.0232,-103.7986 247.0232,-97.7986 253.0232,-91.7986 259.0232,-91.7986 259.0232,-91.7986 315.6276,-91.7986 315.6276,-91.7986 321.6276,-91.7986 327.6276,-97.7986 327.6276,-103.7986 327.6276,-103.7986 327.6276,-135.0014 327.6276,-135.0014 327.6276,-141.0014 321.6276,-147.0014 315.6276,-147.0014"/>
<text text-anchor="middle" x="287.3254" y="-123.6" font-family="Inter" font-size="14.00" fill="#000000">General</text>
<text text-anchor="middle" x="287.3254" y="-106.8" font-family="Inter" font-size="14.00" fill="#000000">Model</text>
</g>
<!-- type&#45;&gt;notation -->
<g id="edge4" class="edge">
<title>type&#45;&gt;notation</title>
<path fill="none" stroke="#94a3b8" stroke-width="1.4" d="M287.3254,-182.8828C287.3254,-175.2152 287.3254,-166.1612 287.3254,-157.3295"/>
<polygon fill="#94a3b8" stroke="#94a3b8" stroke-width="1.4" points="290.8255,-157.1604 287.3254,-147.1604 283.8255,-157.1604 290.8255,-157.1604"/>
</g>
<!-- methods -->
<g id="node6" class="node">
<title>methods</title>
<path fill="#ffffb2" stroke="#feb24c" stroke-width="1.5" d="M323.4908,-55.4014C323.4908,-55.4014 251.16,-55.4014 251.16,-55.4014 245.16,-55.4014 239.16,-49.4014 239.16,-43.4014 239.16,-43.4014 239.16,-12.1986 239.16,-12.1986 239.16,-6.1986 245.16,-.1986 251.16,-.1986 251.16,-.1986 323.4908,-.1986 323.4908,-.1986 329.4908,-.1986 335.4908,-6.1986 335.4908,-12.1986 335.4908,-12.1986 335.4908,-43.4014 335.4908,-43.4014 335.4908,-49.4014 329.4908,-55.4014 323.4908,-55.4014"/>
<text text-anchor="middle" x="287.3254" y="-32" font-family="Inter" font-size="14.00" fill="#000000">Estimation</text>
<text text-anchor="middle" x="287.3254" y="-15.2" font-family="Inter" font-size="14.00" fill="#000000">Methods</text>
</g>
<!-- notation&#45;&gt;methods -->
<g id="edge5" class="edge">
<title>notation&#45;&gt;methods</title>
<path fill="none" stroke="#94a3b8" stroke-width="1.4" d="M287.3254,-91.4193C287.3254,-83.3399 287.3254,-74.384 287.3254,-65.8042"/>
<polygon fill="#94a3b8" stroke="#94a3b8" stroke-width="1.4" points="290.8255,-65.6094 287.3254,-55.6094 283.8255,-65.6094 290.8255,-65.6094"/>
</g>
</g>
</svg>

